<svg width="24" height="24" stroke='#FFF' viewBox="0 0 31 23" fill="#FFF" xmlns="http://www.w3.org/2000/svg">
<path  stroke='#FFF' fill="#FFF" d="M21.1496 1.87004L19.8396 0.870043C19.6348 0.704259 19.3729 0.625968 19.1108 0.652183C18.8486 0.678397 18.6074 0.806998 18.4396 1.01004L0.30957 21.83L0.589571 22.14L5.07957 18C4.92993 17.9398 4.80612 17.8291 4.72965 17.6871C4.65318 17.5451 4.62887 17.3807 4.66096 17.2227C4.69305 17.0646 4.77951 16.9227 4.90531 16.8218C5.03111 16.7208 5.1883 16.6671 5.34957 16.67C5.495 16.67 5.63661 16.7166 5.7536 16.803C5.87059 16.8894 5.9568 17.011 5.99957 17.15L11.9196 11.66C12.0102 11.587 12.1231 11.5472 12.2396 11.5472C12.356 11.5472 12.4689 11.587 12.5596 11.66L12.8596 11.88C12.9611 11.9528 13.0861 11.9849 13.2101 11.9701C13.3341 11.9553 13.4481 11.8946 13.5296 11.8L21.2696 3.12004C21.3518 3.03387 21.4146 2.931 21.4536 2.81842C21.4925 2.70584 21.5068 2.58619 21.4954 2.4676C21.484 2.34901 21.4473 2.23427 21.3876 2.13116C21.3279 2.02805 21.2467 1.93899 21.1496 1.87004Z" fill="#303030"/>
<path  stroke='#FFF' fill="#FFF" d="M29.6703 7.72998C25.7028 10.553 21.2581 12.6364 16.5503 13.88C11.8777 15.0683 7.09648 15.7786 2.28027 16C2.37725 16.7102 2.55162 17.4077 2.80027 18.08C5.52027 20.54 26.0003 16.34 30.0003 11.48C30.8503 10.47 29.6703 7.72998 29.6703 7.72998ZM5.35027 18C5.21578 18 5.08431 17.9601 4.97248 17.8854C4.86066 17.8107 4.7735 17.7045 4.72203 17.5802C4.67057 17.4559 4.6571 17.3192 4.68334 17.1873C4.70958 17.0554 4.77434 16.9342 4.86944 16.8391C4.96454 16.744 5.0857 16.6793 5.21761 16.653C5.34952 16.6268 5.48624 16.6403 5.6105 16.6917C5.73475 16.7432 5.84095 16.8304 5.91567 16.9422C5.99039 17.054 6.03027 17.1855 6.03027 17.32C6.03162 17.4097 6.01495 17.4987 5.98126 17.5818C5.94756 17.6649 5.89752 17.7404 5.83411 17.8038C5.7707 17.8672 5.6952 17.9173 5.61209 17.951C5.52897 17.9847 5.43994 18.0013 5.35027 18Z" fill="#303030"/>
</svg>
